<svg width="210" height="31" viewBox="0 0 210 31" fill="none" xmlns="http://www.w3.org/2000/svg">
<g id="a" clip-path="url(#clip0_4_114)">
<g id="Group">
<path id="Vector" d="M125.873 29.353L125.864 25.7798L123.824 28.7377H123.309L121.268 25.8257V29.353H120.167V23.9608H121.117L123.584 27.534L126.005 23.9608H126.955L126.963 29.353H125.873Z" fill="#E23155"/>
<path id="Vector_2" d="M136.401 28.5137V29.353H131.745V23.9608H136.276V24.8001H132.898V26.2008H135.896V27.0239H132.898V28.511H136.401V28.5137Z" fill="#E23155"/>
<path id="Vector_3" d="M145.004 26.5975H146.095V28.7458C145.776 28.9671 145.404 29.1371 144.977 29.2531C144.551 29.3719 144.114 29.4313 143.666 29.4313C143.034 29.4313 142.462 29.3125 141.955 29.0723C141.447 28.8348 141.048 28.5029 140.757 28.0819C140.468 27.6608 140.322 27.1859 140.322 26.6569C140.322 26.1279 140.468 25.6529 140.757 25.2319C141.045 24.8109 141.447 24.4816 141.958 24.2414C142.468 24.004 143.045 23.8825 143.682 23.8825C144.203 23.8825 144.675 23.9581 145.102 24.1065C145.528 24.2549 145.884 24.4735 146.176 24.7623L145.447 25.3776C144.975 24.9674 144.403 24.7623 143.736 24.7623C143.299 24.7623 142.91 24.8406 142.57 24.9998C142.23 25.159 141.963 25.383 141.771 25.6691C141.58 25.9552 141.483 26.2845 141.483 26.6542C141.483 27.0239 141.58 27.337 141.771 27.6258C141.963 27.9145 142.23 28.1385 142.57 28.3032C142.91 28.4678 143.296 28.5488 143.728 28.5488C144.214 28.5488 144.637 28.457 145.004 28.2708V26.5921V26.5975Z" fill="#E23155"/>
<path id="Vector_4" d="M154.744 28.1062H151.641L151.028 29.353H149.841L152.634 23.9608H153.77L156.572 29.353H155.365L154.744 28.1062ZM154.364 27.3208L153.193 24.9647L152.029 27.3208H154.361H154.364Z" fill="#E23155"/>
<path id="Vector_5" d="M161 29.2531C160.555 29.1344 160.201 28.9779 159.94 28.7836L160.339 28.0063C160.593 28.1817 160.906 28.3221 161.276 28.4327C161.645 28.5434 162.015 28.5973 162.388 28.5973C162.849 28.5973 163.194 28.5326 163.421 28.4057C163.648 28.2789 163.761 28.1088 163.761 27.8983C163.761 27.7445 163.696 27.6177 163.57 27.5178C163.443 27.418 163.281 27.3397 163.087 27.283C162.892 27.2263 162.625 27.1616 162.288 27.0914C161.815 26.9942 161.432 26.8971 161.138 26.7999C160.846 26.7028 160.593 26.5489 160.385 26.3411C160.175 26.1333 160.069 25.8526 160.069 25.4964C160.069 25.1995 160.161 24.927 160.35 24.6841C160.536 24.4412 160.817 24.2468 161.192 24.1038C161.567 23.9608 162.026 23.8879 162.571 23.8879C162.949 23.8879 163.321 23.9284 163.688 24.0121C164.055 24.093 164.371 24.2118 164.638 24.3656L164.274 25.1429C164.001 25.0052 163.718 24.9 163.421 24.8271C163.124 24.7542 162.838 24.7191 162.56 24.7191C162.104 24.7191 161.767 24.7866 161.545 24.9189C161.324 25.0511 161.214 25.2292 161.214 25.4505C161.214 25.6044 161.278 25.7312 161.405 25.8284C161.532 25.9255 161.694 26.0038 161.888 26.0605C162.083 26.1171 162.35 26.1819 162.687 26.2521C163.149 26.3438 163.526 26.441 163.823 26.5408C164.117 26.6407 164.371 26.7945 164.582 26.9996C164.792 27.2047 164.897 27.4827 164.897 27.8309C164.897 28.1277 164.806 28.3976 164.617 28.6405C164.431 28.8807 164.147 29.075 163.769 29.2181C163.391 29.3611 162.93 29.434 162.385 29.434C161.907 29.434 161.443 29.3746 160.998 29.2558L161 29.2531Z" fill="#E23155"/>
<path id="Vector_6" d="M170.319 24.8082H168.263V23.9608H173.531V24.8082H171.474V29.353H170.322V24.8082H170.319Z" fill="#E23155"/>
<path id="Vector_7" d="M178.602 29.0723C178.095 28.8348 177.695 28.5029 177.404 28.0792C177.115 27.6554 176.969 27.1832 176.969 26.6569C176.969 26.1306 177.115 25.6583 177.404 25.2346C177.692 24.8109 178.092 24.4789 178.602 24.2414C179.109 24.004 179.681 23.8825 180.313 23.8825C180.945 23.8825 181.517 24.0013 182.024 24.2414C182.531 24.4789 182.931 24.8109 183.222 25.2319C183.514 25.6529 183.657 26.1279 183.657 26.6569C183.657 27.1859 183.511 27.6608 183.222 28.0819C182.934 28.5029 182.534 28.8321 182.024 29.0723C181.517 29.3098 180.945 29.4313 180.313 29.4313C179.681 29.4313 179.109 29.3125 178.602 29.0723ZM181.43 28.3086C181.762 28.1466 182.021 27.9199 182.21 27.6312C182.399 27.3424 182.494 27.0158 182.494 26.6569C182.494 26.2979 182.399 25.9714 182.21 25.6826C182.021 25.3938 181.76 25.1671 181.43 25.0052C181.098 24.8433 180.726 24.7623 180.313 24.7623C179.9 24.7623 179.528 24.8433 179.196 25.0052C178.864 25.1671 178.605 25.3938 178.416 25.6826C178.227 25.9741 178.132 26.2979 178.132 26.6569C178.132 27.0158 178.227 27.3424 178.416 27.6312C178.605 27.9226 178.866 28.1466 179.196 28.3086C179.528 28.4705 179.9 28.5515 180.313 28.5515C180.726 28.5515 181.098 28.4705 181.43 28.3086Z" fill="#E23155"/>
<path id="Vector_8" d="M192.047 29.353L190.779 27.7742C190.725 27.7796 190.647 27.7823 190.539 27.7823H189.138V29.353H187.986V23.9608H190.539C191.076 23.9608 191.546 24.0391 191.945 24.1929C192.344 24.3467 192.649 24.568 192.863 24.8568C193.076 25.1456 193.181 25.4856 193.181 25.8823C193.181 26.2791 193.068 26.638 192.838 26.9295C192.612 27.221 192.285 27.4396 191.859 27.5853L193.286 29.3557H192.045L192.047 29.353ZM191.632 25.0862C191.373 24.9 190.99 24.8082 190.488 24.8082H189.138V26.9565H190.488C190.99 26.9565 191.37 26.862 191.632 26.6758C191.891 26.4896 192.023 26.2224 192.023 25.8796C192.023 25.5369 191.894 25.2724 191.632 25.0862Z" fill="#E23155"/>
<path id="Vector_9" d="M202.23 28.5137V29.353H197.575V23.9608H202.106V24.8001H198.727V26.2008H201.725V27.0239H198.727V28.511H202.23V28.5137Z" fill="#E23155"/>
</g>
<g id="Group_2">
<path id="Vector_10" d="M96.0049 0.5H79.6339C75.4777 0.5 72.1339 3.84383 72.1339 8V23C72.1339 27.1562 75.4777 30.5 79.6339 30.5H96.0049C100.118 30.5 103.505 27.1157 103.505 23V8C103.505 3.88701 100.121 0.5 96.0049 0.5ZM96.0049 19.9989C96.0049 22.0554 94.2911 23.7287 92.2346 23.7287H83.3636C81.3071 23.7287 79.6339 22.0581 79.6339 19.9989V11.0011C79.6339 8.94458 81.3044 7.27132 83.3636 7.27132H92.2346C94.2911 7.27132 96.0049 8.94188 96.0049 11.0011V20.0016V19.9989Z" fill="#19325C"/>
<path id="Vector_11" d="M202.468 0.5H110.767C109.952 0.5 109.267 1.1855 109.267 2.00054V28.9995C109.267 29.8145 109.952 30.5 110.767 30.5H116.767V20.7276H202.468C206.581 20.7276 209.968 17.3433 209.968 13.2276V8C209.968 3.88701 206.583 0.5 202.468 0.5ZM202.468 12.4989C202.468 13.314 201.782 13.9995 200.967 13.9995H118.267C117.452 13.9995 116.767 13.314 116.767 12.4989V8.76916C116.767 7.95412 117.452 7.26862 118.267 7.26862H200.97C201.785 7.26862 202.47 7.95412 202.47 8.76916V12.4989H202.468Z" fill="#19325C"/>
<path id="Vector_12" d="M27.0853 0.5H2.48561C1.67056 0.5 0.985067 1.1855 0.985067 2.00054V5.77078C0.985067 6.58582 1.67056 7.27132 2.48561 7.27132H16.6274C17.0565 7.27132 17.3992 7.57089 17.3992 8C17.3992 8.21321 17.2697 8.47229 17.0997 8.59914L1.11461 21.6722C0.38593 22.2713 0 23.0432 0 23.9878V29.0022C0 29.8172 0.685498 30.5027 1.50054 30.5027H27.0853C27.9003 30.5027 28.5426 29.8172 28.5426 29.0022V25.2724C28.5426 24.4142 27.9003 23.7287 27.0853 23.7287H11.9153C11.5293 23.7287 11.1866 23.3859 11.1866 23C11.1866 22.7436 11.2729 22.5277 11.443 22.4009L27.4712 9.33051C28.1567 8.77456 28.5426 7.91634 28.5426 7.01493V2.00054C28.5426 1.1855 27.9003 0.5 27.0853 0.5Z" fill="#19325C"/>
<path id="Vector_13" d="M58.1756 0.5H41.8046C37.6485 0.5 34.3046 3.84383 34.3046 8V23C34.3046 27.1562 37.6485 30.5 41.8046 30.5H58.1756C62.2886 30.5 65.6756 27.1157 65.6756 23V8C65.6756 3.88701 62.2913 0.5 58.1756 0.5ZM58.1756 19.9989C58.1756 22.0554 56.4619 23.7287 54.4054 23.7287H45.5344C43.4779 23.7287 41.8046 22.0581 41.8046 19.9989V11.0011C41.8046 8.94458 43.4752 7.27132 45.5344 7.27132H54.4054C56.4619 7.27132 58.1756 8.94188 58.1756 11.0011V20.0016V19.9989Z" fill="#19325C"/>
</g>
</g>
<defs>
<clipPath id="clip0_4_114">
<rect width="209.968" height="30" fill="white" transform="translate(0 0.5)"/>
</clipPath>
</defs>
</svg>
